<svg width="20" height="20" viewBox="0 0 20 20" fill="none" xmlns="http://www.w3.org/2000/svg">
<path d="M18.8 10.2083C18.8 9.55834 18.7417 8.93334 18.6333 8.33334H10V11.8833H14.9333C14.7167 13.025 14.0667 13.9917 13.0917 14.6417V16.95H16.0667C17.8 15.35 18.8 13 18.8 10.2083Z" fill="#4285F4"/>
<path d="M10 19.1667C12.475 19.1667 14.55 18.35 16.0667 16.95L13.0917 14.6417C12.25 15.2 11.1917 15.525 10 15.525C7.61668 15.525 5.59168 13.9167 4.86668 11.75H1.81668V14.1167C3.32501 17.1083 6.41668 19.1667 10 19.1667Z" fill="#34A853"/>
<path d="M4.86668 11.7417C4.68334 11.1833 4.57501 10.5833 4.57501 10C4.57501 9.41666 4.68334 8.81666 4.86668 8.25833V5.89166H1.81668C1.19168 7.125 0.833344 8.51666 0.833344 10C0.833344 11.4833 1.19168 12.875 1.81668 14.1083L4.86668 11.7417Z" fill="#FBBC05"/>
<path d="M10 4.48334C11.35 4.48334 12.55 4.95001 13.5083 5.85001L16.1333 3.22501C14.5417 1.74168 12.475 0.833344 10 0.833344C6.41668 0.833344 3.32501 2.89168 1.81668 5.89168L4.86668 8.25834C5.59168 6.09168 7.61668 4.48334 10 4.48334Z" fill="#EA4335"/>
</svg>
